<?xml version="1.0" encoding="UTF-8" standalone="no"?>
<svg
   viewBox="0 0 572 594"
   width="572"
   height="594"
   version="1.1"
   id="svg8"
   sodipodi:docname="jules_icon.svg"
   inkscape:version="1.4.2 (ebf0e940d0, 2025-05-08)"
   xmlns:inkscape="http://www.inkscape.org/namespaces/inkscape"
   xmlns:sodipodi="http://sodipodi.sourceforge.net/DTD/sodipodi-0.dtd"
   xmlns="http://www.w3.org/2000/svg"
   xmlns:svg="http://www.w3.org/2000/svg">
  <defs
     id="defs8" />
  <sodipodi:namedview
     id="namedview8"
     pagecolor="#ffffff"
     bordercolor="#000000"
     borderopacity="0.25"
     inkscape:showpageshadow="2"
     inkscape:pageopacity="0.0"
     inkscape:pagecheckerboard="0"
     inkscape:deskcolor="#d1d1d1"
     inkscape:zoom="2"
     inkscape:cx="168.5"
     inkscape:cy="386.25"
     inkscape:window-width="1920"
     inkscape:window-height="1012"
     inkscape:window-x="0"
     inkscape:window-y="0"
     inkscape:window-maximized="1"
     inkscape:current-layer="svg8" />
  <g
     fill="None"
     fill-opacity="0.0"
     stroke="#5F2BBE"
     stroke-opacity="1.00"
     stroke-width="0.3"
     id="g1">
    <path
       d=" M 0.00 594.00  L 572.00 594.00 L 572.00 0.00 L 0.00 0.00 L 0.00 594.00 M 286.00 13.00  C 302.53 13.71 322.68 17.78 338.07 22.93 C 353.46 28.08 366.97 34.95 379.75 44.25 C 392.53 53.55 402.88 61.53 412.75 74.25 C 422.62 86.97 430.58 97.57 436.92 113.08 C 443.27 128.58 448.46 143.77 449.99 162.01 C 451.52 180.25 452.15 203.38 452.00 223.00 C 451.85 242.62 452.53 266.11 452.00 286.00 C 451.47 305.89 453.45 327.96 450.02 347.02 C 446.60 366.08 445.37 385.13 446.00 405.00 C 446.63 424.87 445.86 448.87 446.00 468.00 C 446.14 487.13 442.77 507.32 457.25 519.75 C 471.72 532.18 493.19 523.27 496.98 506.98 C 500.76 490.68 504.36 474.38 523.22 471.22 C 542.09 468.06 555.69 486.15 554.00 503.00 C 552.31 519.85 547.16 535.81 536.75 548.75 C 526.33 561.68 514.61 569.18 499.78 574.78 C 484.94 580.37 460.95 581.18 445.98 575.02 C 431.00 568.87 420.34 561.84 409.25 548.75 C 398.16 535.66 393.94 520.97 392.00 503.00 C 390.06 485.03 392.07 460.24 391.00 441.00 C 389.93 421.76 393.85 398.92 390.01 379.99 C 386.17 361.07 356.55 367.00 357.22 386.22 C 357.90 405.44 356.94 429.83 357.00 449.00 C 357.06 468.17 359.76 490.34 354.22 507.22 C 348.69 524.10 329.43 530.09 314.77 520.23 C 300.11 510.37 300.66 487.54 302.00 470.00 C 303.34 452.46 299.63 424.24 302.00 407.00 C 304.37 389.76 302.83 364.42 280.93 368.93 C 259.03 373.43 268.13 399.33 267.00 417.00 C 265.87 434.67 267.00 462.08 267.00 480.00 C 267.00 497.92 266.61 518.00 247.32 523.32 C 228.04 528.65 214.79 516.77 213.00 498.00 C 211.21 479.23 213.84 456.53 212.00 437.00 C 210.16 417.47 217.70 395.02 209.23 376.77 C 200.75 358.52 174.94 372.43 178.00 391.00 C 181.06 409.57 176.69 432.80 178.00 452.00 C 179.31 471.20 178.44 494.36 176.01 512.01 C 173.58 529.66 165.88 540.68 154.75 553.75 C 143.62 566.83 131.07 572.57 114.99 576.99 C 98.92 581.41 76.30 578.83 61.77 571.23 C 47.25 563.63 37.57 556.30 28.70 542.30 C 19.83 528.30 13.50 511.05 15.99 493.99 C 18.48 476.93 37.53 465.86 54.07 472.93 C 70.62 480.00 66.99 500.98 75.77 514.23 C 84.55 527.47 106.43 530.24 116.77 514.77 C 127.11 499.30 121.51 477.51 123.00 458.00 C 124.49 438.49 120.63 415.18 123.00 395.00 C 125.37 374.82 115.87 360.22 114.00 341.00 C 112.13 321.78 114.61 298.76 114.00 279.00 C 113.39 259.24 113.73 236.44 113.00 217.00 C 112.27 197.56 113.96 174.93 116.00 157.00 C 118.04 139.07 124.10 124.06 130.77 108.77 C 137.44 93.48 145.29 84.04 155.75 71.75 C 166.21 59.46 175.72 50.72 189.08 42.08 C 202.44 33.44 215.77 25.95 231.68 21.68 C 247.58 17.41 268.61 12.26 286.00 13.00 Z"
       id="path1" />
  </g>
  <g
     fill="None"
     fill-opacity="0.0"
     stroke="#F7F9FD"
     stroke-opacity="1.00"
     stroke-width="0.3"
     id="g2">
    <path
       d=" M 286.00 13.00  C 268.61 12.26 247.58 17.41 231.68 21.68 C 215.77 25.95 202.44 33.44 189.08 42.08 C 175.72 50.72 166.21 59.46 155.75 71.75 C 145.29 84.04 137.44 93.48 130.77 108.77 C 124.10 124.06 118.04 139.07 116.00 157.00 C 113.96 174.93 112.27 197.56 113.00 217.00 C 113.73 236.44 113.39 259.24 114.00 279.00 C 114.61 298.76 112.13 321.78 114.00 341.00 C 115.87 360.22 125.37 374.82 123.00 395.00 C 120.63 415.18 124.49 438.49 123.00 458.00 C 121.51 477.51 127.11 499.30 116.77 514.77 C 106.43 530.24 84.55 527.47 75.77 514.23 C 66.99 500.98 70.62 480.00 54.07 472.93 C 37.53 465.86 18.48 476.93 15.99 493.99 C 13.50 511.05 19.83 528.30 28.70 542.30 C 37.57 556.30 47.25 563.63 61.77 571.23 C 76.30 578.83 98.92 581.41 114.99 576.99 C 131.07 572.57 143.62 566.83 154.75 553.75 C 165.88 540.68 173.58 529.66 176.01 512.01 C 178.44 494.36 179.31 471.20 178.00 452.00 C 176.69 432.80 181.06 409.57 178.00 391.00 C 174.94 372.43 200.75 358.52 209.23 376.77 C 217.70 395.02 210.16 417.47 212.00 437.00 C 213.84 456.53 211.21 479.23 213.00 498.00 C 214.79 516.77 228.04 528.65 247.32 523.32 C 266.61 518.00 267.00 497.92 267.00 480.00 C 267.00 462.08 265.87 434.67 267.00 417.00 C 268.13 399.33 259.03 373.43 280.93 368.93 C 302.83 364.42 304.37 389.76 302.00 407.00 C 299.63 424.24 303.34 452.46 302.00 470.00 C 300.66 487.54 300.11 510.37 314.77 520.23 C 329.43 530.09 348.69 524.10 354.22 507.22 C 359.76 490.34 357.06 468.17 357.00 449.00 C 356.94 429.83 357.90 405.44 357.22 386.22 C 356.55 367.00 386.17 361.07 390.01 379.99 C 393.85 398.92 389.93 421.76 391.00 441.00 C 392.07 460.24 390.06 485.03 392.00 503.00 C 393.94 520.97 398.16 535.66 409.25 548.75 C 420.34 561.84 431.00 568.87 445.98 575.02 C 460.95 581.18 484.94 580.37 499.78 574.78 C 514.61 569.18 526.33 561.68 536.75 548.75 C 547.16 535.81 552.31 519.85 554.00 503.00 C 555.69 486.15 542.09 468.06 523.22 471.22 C 504.36 474.38 500.76 490.68 496.98 506.98 C 493.19 523.27 471.72 532.18 457.25 519.75 C 442.77 507.32 446.14 487.13 446.00 468.00 C 445.86 448.87 446.63 424.87 446.00 405.00 C 445.37 385.13 446.60 366.08 450.02 347.02 C 453.45 327.96 451.47 305.89 452.00 286.00 C 452.53 266.11 451.85 242.62 452.00 223.00 C 452.15 203.38 451.52 180.25 449.99 162.01 C 448.46 143.77 443.27 128.58 436.92 113.08 C 430.58 97.57 422.62 86.97 412.75 74.25 C 402.88 61.53 392.53 53.55 379.75 44.25 C 366.97 34.95 353.46 28.08 338.07 22.93 C 322.68 17.78 302.53 13.71 286.00 13.00 M 199.00 252.00  C 232.80 256.83 225.72 323.59 191.00 318.00 C 156.27 312.41 163.99 247.00 199.00 252.00 M 378.00 252.00  C 411.74 256.82 405.39 322.34 370.99 318.01 C 336.59 313.68 342.98 247.00 378.00 252.00 Z"
       id="path2" />
  </g>
  <g
     fill="None"
     fill-opacity="0.0"
     stroke="#5F2BBE"
     stroke-opacity="1.00"
     stroke-width="0.3"
     id="g3">
    <path
       d=" M 199.00 252.00  C 163.99 247.00 156.27 312.41 191.00 318.00 C 225.72 323.59 232.80 256.83 199.00 252.00 Z"
       id="path3" />
  </g>
  <g
     fill="None"
     fill-opacity="0.0"
     stroke="#5F2BBE"
     stroke-opacity="1.00"
     stroke-width="0.3"
     id="g4">
    <path
       d=" M 378.00 252.00  C 342.98 247.00 336.59 313.68 370.99 318.01 C 405.39 322.34 411.74 256.82 378.00 252.00 Z"
       id="path4" />
  </g>
  <g
     fill="#F7F9FD"
     fill-opacity="1.00"
     stroke="None"
     id="g6"
     style="stroke:#000000;stroke-opacity:1;stroke-width:20;stroke-dasharray:none;stroke-linejoin:round;stroke-linecap:round;fill:#161616;fill-opacity:0">
    <path
       d=" M 286.00 13.00  C 268.61 12.26 247.58 17.41 231.68 21.68 C 215.77 25.95 202.44 33.44 189.08 42.08 C 175.72 50.72 166.21 59.46 155.75 71.75 C 145.29 84.04 137.44 93.48 130.77 108.77 C 124.10 124.06 118.04 139.07 116.00 157.00 C 113.96 174.93 112.27 197.56 113.00 217.00 C 113.73 236.44 113.39 259.24 114.00 279.00 C 114.61 298.76 112.13 321.78 114.00 341.00 C 115.87 360.22 125.37 374.82 123.00 395.00 C 120.63 415.18 124.49 438.49 123.00 458.00 C 121.51 477.51 127.11 499.30 116.77 514.77 C 106.43 530.24 84.55 527.47 75.77 514.23 C 66.99 500.98 70.62 480.00 54.07 472.93 C 37.53 465.86 18.48 476.93 15.99 493.99 C 13.50 511.05 19.83 528.30 28.70 542.30 C 37.57 556.30 47.25 563.63 61.77 571.23 C 76.30 578.83 98.92 581.41 114.99 576.99 C 131.07 572.57 143.62 566.83 154.75 553.75 C 165.88 540.68 173.58 529.66 176.01 512.01 C 178.44 494.36 179.31 471.20 178.00 452.00 C 176.69 432.80 181.06 409.57 178.00 391.00 C 174.94 372.43 200.75 358.52 209.23 376.77 C 217.70 395.02 210.16 417.47 212.00 437.00 C 213.84 456.53 211.21 479.23 213.00 498.00 C 214.79 516.77 228.04 528.65 247.32 523.32 C 266.61 518.00 267.00 497.92 267.00 480.00 C 267.00 462.08 265.87 434.67 267.00 417.00 C 268.13 399.33 259.03 373.43 280.93 368.93 C 302.83 364.42 304.37 389.76 302.00 407.00 C 299.63 424.24 303.34 452.46 302.00 470.00 C 300.66 487.54 300.11 510.37 314.77 520.23 C 329.43 530.09 348.69 524.10 354.22 507.22 C 359.76 490.34 357.06 468.17 357.00 449.00 C 356.94 429.83 357.90 405.44 357.22 386.22 C 356.55 367.00 386.17 361.07 390.01 379.99 C 393.85 398.92 389.93 421.76 391.00 441.00 C 392.07 460.24 390.06 485.03 392.00 503.00 C 393.94 520.97 398.16 535.66 409.25 548.75 C 420.34 561.84 431.00 568.87 445.98 575.02 C 460.95 581.18 484.94 580.37 499.78 574.78 C 514.61 569.18 526.33 561.68 536.75 548.75 C 547.16 535.81 552.31 519.85 554.00 503.00 C 555.69 486.15 542.09 468.06 523.22 471.22 C 504.36 474.38 500.76 490.68 496.98 506.98 C 493.19 523.27 471.72 532.18 457.25 519.75 C 442.77 507.32 446.14 487.13 446.00 468.00 C 445.86 448.87 446.63 424.87 446.00 405.00 C 445.37 385.13 446.60 366.08 450.02 347.02 C 453.45 327.96 451.47 305.89 452.00 286.00 C 452.53 266.11 451.85 242.62 452.00 223.00 C 452.15 203.38 451.52 180.25 449.99 162.01 C 448.46 143.77 443.27 128.58 436.92 113.08 C 430.58 97.57 422.62 86.97 412.75 74.25 C 402.88 61.53 392.53 53.55 379.75 44.25 C 366.97 34.95 353.46 28.08 338.07 22.93 C 322.68 17.78 302.53 13.71 286.00 13.00 M 199.00 252.00  C 232.80 256.83 225.72 323.59 191.00 318.00 C 156.27 312.41 163.99 247.00 199.00 252.00 M 378.00 252.00  C 411.74 256.82 405.39 322.34 370.99 318.01 C 336.59 313.68 342.98 247.00 378.00 252.00 Z"
       id="path6"
       style="stroke:#000000;stroke-opacity:1;stroke-width:20;stroke-dasharray:none;stroke-linejoin:round;stroke-linecap:round;fill:#161616;fill-opacity:0" />
  </g>
</svg>
